<mxfile host="app.diagrams.net" modified="2020-08-10T02:56:31.508Z" agent="5.0 (Windows NT 10.0; Win64; x64) AppleWebKit/537.36 (KHTML, like Gecko) Chrome/84.0.4147.105 Safari/537.36 Edg/84.0.522.52" etag="3mU_9qYq7_8W_HfOQYzY" version="13.6.2" type="github">
  <diagram id="VbcrtcZrMpj6VKR41dFL" name="Page-1">
    <mxGraphModel dx="1422" dy="1931" grid="1" gridSize="10" guides="1" tooltips="1" connect="1" arrows="1" fold="1" page="1" pageScale="1" pageWidth="827" pageHeight="1169" math="0" shadow="0">
      <root>
        <mxCell id="0" />
        <mxCell id="1" parent="0" />
        <mxCell id="d6c-pHE6NMxq9UuElUnG-2" value="회원" style="shape=umlActor;verticalLabelPosition=bottom;verticalAlign=top;html=1;outlineConnect=0;" parent="1" vertex="1">
          <mxGeometry x="30" y="-450" width="30" height="60" as="geometry" />
        </mxCell>
        <mxCell id="d6c-pHE6NMxq9UuElUnG-3" value="비회원" style="shape=umlActor;verticalLabelPosition=bottom;verticalAlign=top;html=1;outlineConnect=0;" parent="1" vertex="1">
          <mxGeometry x="625" y="-495" width="30" height="60" as="geometry" />
        </mxCell>
        <mxCell id="d6c-pHE6NMxq9UuElUnG-4" value="&lt;font&gt;&lt;b style=&quot;font-size: 15px&quot;&gt;메인화면&lt;/b&gt;&lt;br&gt;&lt;div&gt;&lt;span&gt;header&lt;/span&gt;&lt;/div&gt;&lt;/font&gt;&lt;span style=&quot;font-size: 14px&quot;&gt;메뉴,로그인,공지&lt;br&gt;nav&lt;br&gt;소장품, 행사, 쇼핑&lt;br&gt;content.1&lt;br&gt;일정급한 행사 광고&lt;br&gt;footer&lt;br&gt;소개,주소,연락처 등&lt;br&gt;&lt;/span&gt;" style="rounded=0;whiteSpace=wrap;html=1;" parent="1" vertex="1">
          <mxGeometry x="240" y="-550" width="189" height="170" as="geometry" />
        </mxCell>
        <mxCell id="d6c-pHE6NMxq9UuElUnG-10" value="" style="endArrow=classic;html=1;entryX=0;entryY=0.75;entryDx=0;entryDy=0;exitX=0.5;exitY=0.5;exitDx=0;exitDy=0;exitPerimeter=0;strokeWidth=3;" parent="1" source="d6c-pHE6NMxq9UuElUnG-2" target="d6c-pHE6NMxq9UuElUnG-4" edge="1">
          <mxGeometry width="50" height="50" relative="1" as="geometry">
            <mxPoint x="100" y="80.44247787610618" as="sourcePoint" />
            <mxPoint x="364" y="88.23008849557527" as="targetPoint" />
            <Array as="points" />
          </mxGeometry>
        </mxCell>
        <mxCell id="d6c-pHE6NMxq9UuElUnG-11" value="" style="endArrow=classic;html=1;entryX=1;entryY=0.5;entryDx=0;entryDy=0;exitX=0.5;exitY=0.5;exitDx=0;exitDy=0;exitPerimeter=0;strokeWidth=3;" parent="1" source="d6c-pHE6NMxq9UuElUnG-3" target="d6c-pHE6NMxq9UuElUnG-4" edge="1">
          <mxGeometry width="50" height="50" relative="1" as="geometry">
            <mxPoint x="390" y="370" as="sourcePoint" />
            <mxPoint x="440" y="320" as="targetPoint" />
          </mxGeometry>
        </mxCell>
        <mxCell id="d6c-pHE6NMxq9UuElUnG-16" value="매니저" style="shape=umlActor;verticalLabelPosition=bottom;verticalAlign=top;html=1;outlineConnect=0;direction=east;" parent="1" vertex="1">
          <mxGeometry x="30" y="-550" width="30" height="60" as="geometry" />
        </mxCell>
        <mxCell id="d6c-pHE6NMxq9UuElUnG-17" value="&lt;font&gt;&lt;b style=&quot;font-size: 15px&quot;&gt;로그인&lt;/b&gt;&lt;br&gt;&lt;font style=&quot;font-size: 13px&quot;&gt;header &lt;/font&gt;&lt;br&gt;&lt;span style=&quot;font-size: 14px&quot;&gt;메인화면과 동일&lt;br&gt;&lt;/span&gt;content&lt;br&gt;&lt;span style=&quot;font-size: 14px&quot;&gt;아이디 입력란,비번 입력란&lt;/span&gt;&lt;br&gt;&lt;span style=&quot;font-size: 14px&quot;&gt;로그인 실행 버튼&lt;/span&gt;&lt;br&gt;&lt;span style=&quot;font-size: 14px&quot;&gt;회원가입 버튼&lt;/span&gt;&lt;br&gt;&lt;font style=&quot;font-size: 13px&quot;&gt;footer&lt;/font&gt;&lt;br&gt;&lt;font style=&quot;font-size: 14px&quot;&gt;메인화면과 동일&lt;/font&gt;&lt;br&gt;&lt;br&gt;&lt;/font&gt;" style="rounded=0;whiteSpace=wrap;html=1;" parent="1" vertex="1">
          <mxGeometry x="240" y="-360" width="189" height="160" as="geometry" />
        </mxCell>
        <mxCell id="d6c-pHE6NMxq9UuElUnG-18" value="비회원" style="shape=umlActor;verticalLabelPosition=bottom;verticalAlign=top;html=1;outlineConnect=0;" parent="1" vertex="1">
          <mxGeometry x="610" y="-330" width="60" height="80" as="geometry" />
        </mxCell>
        <mxCell id="d6c-pHE6NMxq9UuElUnG-19" value="" style="endArrow=classic;html=1;entryX=1;entryY=0.5;entryDx=0;entryDy=0;exitX=0.5;exitY=0.5;exitDx=0;exitDy=0;exitPerimeter=0;strokeWidth=3;" parent="1" source="d6c-pHE6NMxq9UuElUnG-18" target="d6c-pHE6NMxq9UuElUnG-17" edge="1">
          <mxGeometry width="50" height="50" relative="1" as="geometry">
            <mxPoint x="708" y="-80.5" as="sourcePoint" />
            <mxPoint x="508" y="-80.5" as="targetPoint" />
          </mxGeometry>
        </mxCell>
        <mxCell id="d6c-pHE6NMxq9UuElUnG-20" value="회원" style="shape=umlActor;verticalLabelPosition=bottom;verticalAlign=top;html=1;outlineConnect=0;" parent="1" vertex="1">
          <mxGeometry x="15" y="-320" width="60" height="80" as="geometry" />
        </mxCell>
        <mxCell id="d6c-pHE6NMxq9UuElUnG-21" value="" style="endArrow=classic;html=1;exitX=0.5;exitY=0.5;exitDx=0;exitDy=0;exitPerimeter=0;strokeWidth=3;" parent="1" source="d6c-pHE6NMxq9UuElUnG-20" target="d6c-pHE6NMxq9UuElUnG-17" edge="1">
          <mxGeometry width="50" height="50" relative="1" as="geometry">
            <mxPoint x="120" y="-77" as="sourcePoint" />
            <mxPoint x="361" y="-90.64" as="targetPoint" />
            <Array as="points" />
          </mxGeometry>
        </mxCell>
        <mxCell id="d6c-pHE6NMxq9UuElUnG-22" value="&lt;b&gt;&lt;font style=&quot;font-size: 15px&quot;&gt;소장품&lt;/font&gt;&lt;/b&gt;&lt;br&gt;&lt;font style=&quot;font-size: 14px&quot;&gt;작품을 감상 가능&lt;br&gt;header,footer살림&lt;/font&gt;" style="rounded=0;whiteSpace=wrap;html=1;" parent="1" vertex="1">
          <mxGeometry x="980" y="-555" width="189" height="60" as="geometry" />
        </mxCell>
        <mxCell id="d6c-pHE6NMxq9UuElUnG-23" value="회원" style="shape=umlActor;verticalLabelPosition=bottom;verticalAlign=top;html=1;outlineConnect=0;" parent="1" vertex="1">
          <mxGeometry x="840" y="-560" width="60" height="80" as="geometry" />
        </mxCell>
        <mxCell id="d6c-pHE6NMxq9UuElUnG-24" value="비회원" style="shape=umlActor;verticalLabelPosition=bottom;verticalAlign=top;html=1;outlineConnect=0;" parent="1" vertex="1">
          <mxGeometry x="1270" y="-555" width="60" height="80" as="geometry" />
        </mxCell>
        <mxCell id="d6c-pHE6NMxq9UuElUnG-25" value="" style="endArrow=classic;html=1;entryX=1;entryY=0.5;entryDx=0;entryDy=0;exitX=0.5;exitY=0.5;exitDx=0;exitDy=0;exitPerimeter=0;strokeWidth=3;" parent="1" source="d6c-pHE6NMxq9UuElUnG-24" target="d6c-pHE6NMxq9UuElUnG-27" edge="1">
          <mxGeometry width="50" height="50" relative="1" as="geometry">
            <mxPoint x="740" y="249.5" as="sourcePoint" />
            <mxPoint x="540" y="249.5" as="targetPoint" />
            <Array as="points" />
          </mxGeometry>
        </mxCell>
        <mxCell id="d6c-pHE6NMxq9UuElUnG-26" value="" style="endArrow=classic;html=1;entryX=0;entryY=0.5;entryDx=0;entryDy=0;exitX=0.5;exitY=0.5;exitDx=0;exitDy=0;exitPerimeter=0;strokeWidth=3;" parent="1" source="d6c-pHE6NMxq9UuElUnG-23" target="d6c-pHE6NMxq9UuElUnG-22" edge="1">
          <mxGeometry width="50" height="50" relative="1" as="geometry">
            <mxPoint x="100" y="251.27717391304338" as="sourcePoint" />
            <mxPoint x="361" y="229.9999999999999" as="targetPoint" />
            <Array as="points" />
          </mxGeometry>
        </mxCell>
        <mxCell id="d6c-pHE6NMxq9UuElUnG-27" value="&lt;span style=&quot;font-size: 15px&quot;&gt;&lt;b&gt;행사&lt;/b&gt;&lt;/span&gt;&lt;br&gt;&lt;font style=&quot;font-size: 14px&quot;&gt;행사포스터,행사설명&lt;br&gt;header,footer살림&lt;/font&gt;" style="rounded=0;whiteSpace=wrap;html=1;" parent="1" vertex="1">
          <mxGeometry x="980" y="-475" width="189" height="60" as="geometry" />
        </mxCell>
        <mxCell id="d6c-pHE6NMxq9UuElUnG-28" value="" style="endArrow=classic;html=1;entryX=0;entryY=0.5;entryDx=0;entryDy=0;exitX=0.5;exitY=0.5;exitDx=0;exitDy=0;exitPerimeter=0;strokeWidth=3;" parent="1" source="d6c-pHE6NMxq9UuElUnG-23" target="d6c-pHE6NMxq9UuElUnG-27" edge="1">
          <mxGeometry width="50" height="50" relative="1" as="geometry">
            <mxPoint x="105" y="60" as="sourcePoint" />
            <mxPoint x="351" y="319.36" as="targetPoint" />
            <Array as="points" />
          </mxGeometry>
        </mxCell>
        <mxCell id="d6c-pHE6NMxq9UuElUnG-29" value="" style="endArrow=classic;html=1;entryX=1;entryY=0.5;entryDx=0;entryDy=0;exitX=0.5;exitY=0.5;exitDx=0;exitDy=0;exitPerimeter=0;strokeWidth=3;" parent="1" source="d6c-pHE6NMxq9UuElUnG-24" target="d6c-pHE6NMxq9UuElUnG-22" edge="1">
          <mxGeometry width="50" height="50" relative="1" as="geometry">
            <mxPoint x="750" y="259.5" as="sourcePoint" />
            <mxPoint x="550" y="259.5" as="targetPoint" />
          </mxGeometry>
        </mxCell>
        <mxCell id="d6c-pHE6NMxq9UuElUnG-30" value="&lt;span style=&quot;font-size: 15px&quot;&gt;&lt;b&gt;굿즈&lt;/b&gt;&lt;/span&gt;&lt;br&gt;&lt;font style=&quot;font-size: 14px&quot;&gt;상품판매. 회원만 이용.&lt;br&gt;header,footer살림&lt;/font&gt;" style="rounded=0;whiteSpace=wrap;html=1;" parent="1" vertex="1">
          <mxGeometry x="980" y="-390" width="189" height="60" as="geometry" />
        </mxCell>
        <mxCell id="d6c-pHE6NMxq9UuElUnG-32" style="edgeStyle=none;rounded=0;orthogonalLoop=1;jettySize=auto;html=1;exitX=0.5;exitY=0.5;exitDx=0;exitDy=0;exitPerimeter=0;entryX=0;entryY=0.182;entryDx=0;entryDy=0;entryPerimeter=0;strokeWidth=3;" parent="1" source="d6c-pHE6NMxq9UuElUnG-16" target="d6c-pHE6NMxq9UuElUnG-4" edge="1">
          <mxGeometry relative="1" as="geometry" />
        </mxCell>
        <mxCell id="d6c-pHE6NMxq9UuElUnG-33" value="&lt;font&gt;&lt;b style=&quot;font-size: 15px&quot;&gt;회원가입화면&lt;/b&gt;&lt;br&gt;&lt;font style=&quot;font-size: 13px&quot;&gt;header &lt;/font&gt;&lt;br&gt;&lt;span style=&quot;font-size: 14px&quot;&gt;메인화면과 동일&lt;/span&gt;&lt;br&gt;content&lt;br&gt;회원가입 정보 입력&lt;br&gt;&lt;font style=&quot;font-size: 13px&quot;&gt;footer&lt;/font&gt;&lt;br&gt;&lt;font style=&quot;font-size: 14px&quot;&gt;메인화면과 동일&lt;/font&gt;&lt;br&gt;&lt;br&gt;&lt;/font&gt;" style="rounded=0;whiteSpace=wrap;html=1;" parent="1" vertex="1">
          <mxGeometry x="1030" y="-280" width="189" height="130" as="geometry" />
        </mxCell>
        <mxCell id="d6c-pHE6NMxq9UuElUnG-34" value="" style="endArrow=classic;html=1;entryX=0;entryY=0.25;entryDx=0;entryDy=0;exitX=0.5;exitY=0.5;exitDx=0;exitDy=0;exitPerimeter=0;strokeWidth=3;" parent="1" source="d6c-pHE6NMxq9UuElUnG-23" target="d6c-pHE6NMxq9UuElUnG-30" edge="1">
          <mxGeometry width="50" height="50" relative="1" as="geometry">
            <mxPoint x="150" y="60" as="sourcePoint" />
            <mxPoint x="329" y="140" as="targetPoint" />
            <Array as="points" />
          </mxGeometry>
        </mxCell>
        <mxCell id="d6c-pHE6NMxq9UuElUnG-35" value="" style="endArrow=classic;html=1;entryX=0.75;entryY=0;entryDx=0;entryDy=0;exitX=0.5;exitY=0.5;exitDx=0;exitDy=0;exitPerimeter=0;strokeWidth=3;" parent="1" source="d6c-pHE6NMxq9UuElUnG-24" target="d6c-pHE6NMxq9UuElUnG-33" edge="1">
          <mxGeometry width="50" height="50" relative="1" as="geometry">
            <mxPoint x="700" y="70" as="sourcePoint" />
            <mxPoint x="518" y="140" as="targetPoint" />
            <Array as="points" />
          </mxGeometry>
        </mxCell>
        <mxCell id="d6c-pHE6NMxq9UuElUnG-37" value="&lt;font&gt;&lt;span style=&quot;font-size: 15px&quot;&gt;&lt;b&gt;공지&lt;/b&gt;&lt;/span&gt;&lt;br&gt;&lt;font style=&quot;font-size: 13px&quot;&gt;header &lt;/font&gt;&lt;br&gt;&lt;span style=&quot;font-size: 14px&quot;&gt;메인화면과 동일&lt;br&gt;&lt;/span&gt;content&lt;br&gt;&lt;span style=&quot;font-size: 14px&quot;&gt;공지 게시판, 관리자만 쓰기&lt;/span&gt;&lt;br&gt;&lt;font style=&quot;font-size: 13px&quot;&gt;footer&lt;/font&gt;&lt;br&gt;&lt;font style=&quot;font-size: 14px&quot;&gt;메인화면과 동일&lt;/font&gt;&lt;br&gt;&lt;br&gt;&lt;/font&gt;" style="rounded=0;whiteSpace=wrap;html=1;" parent="1" vertex="1">
          <mxGeometry x="240" y="-180" width="189" height="130" as="geometry" />
        </mxCell>
        <mxCell id="d6c-pHE6NMxq9UuElUnG-38" value="매니저" style="shape=umlActor;verticalLabelPosition=bottom;verticalAlign=top;html=1;outlineConnect=0;direction=east;" parent="1" vertex="1">
          <mxGeometry x="30" y="-170" width="45" height="60" as="geometry" />
        </mxCell>
        <mxCell id="d6c-pHE6NMxq9UuElUnG-39" value="" style="endArrow=classic;html=1;exitX=0.5;exitY=0.5;exitDx=0;exitDy=0;exitPerimeter=0;strokeWidth=3;entryX=-0.016;entryY=0.446;entryDx=0;entryDy=0;entryPerimeter=0;" parent="1" source="d6c-pHE6NMxq9UuElUnG-38" target="d6c-pHE6NMxq9UuElUnG-37" edge="1">
          <mxGeometry width="50" height="50" relative="1" as="geometry">
            <mxPoint x="170" y="-120" as="sourcePoint" />
            <mxPoint x="290" y="-120" as="targetPoint" />
            <Array as="points" />
          </mxGeometry>
        </mxCell>
        <mxCell id="d6c-pHE6NMxq9UuElUnG-40" value="비회원" style="shape=umlActor;verticalLabelPosition=bottom;verticalAlign=top;html=1;outlineConnect=0;" parent="1" vertex="1">
          <mxGeometry x="610" y="-170" width="60" height="80" as="geometry" />
        </mxCell>
        <mxCell id="d6c-pHE6NMxq9UuElUnG-41" value="회원" style="shape=umlActor;verticalLabelPosition=bottom;verticalAlign=top;html=1;outlineConnect=0;" parent="1" vertex="1">
          <mxGeometry x="37.5" y="-80" width="30" height="60" as="geometry" />
        </mxCell>
        <mxCell id="d6c-pHE6NMxq9UuElUnG-42" value="" style="endArrow=classic;html=1;exitX=0.5;exitY=0.5;exitDx=0;exitDy=0;exitPerimeter=0;strokeWidth=3;entryX=0;entryY=0.75;entryDx=0;entryDy=0;" parent="1" source="d6c-pHE6NMxq9UuElUnG-41" target="d6c-pHE6NMxq9UuElUnG-37" edge="1">
          <mxGeometry width="50" height="50" relative="1" as="geometry">
            <mxPoint x="160.52" y="-57.980000000000004" as="sourcePoint" />
            <mxPoint x="318.9960000000001" y="-29.999999999999986" as="targetPoint" />
            <Array as="points" />
          </mxGeometry>
        </mxCell>
        <mxCell id="d6c-pHE6NMxq9UuElUnG-43" value="" style="endArrow=classic;html=1;entryX=1;entryY=0.5;entryDx=0;entryDy=0;exitX=0.5;exitY=0.5;exitDx=0;exitDy=0;exitPerimeter=0;strokeWidth=3;" parent="1" source="d6c-pHE6NMxq9UuElUnG-40" target="d6c-pHE6NMxq9UuElUnG-37" edge="1">
          <mxGeometry width="50" height="50" relative="1" as="geometry">
            <mxPoint x="690" y="-120" as="sourcePoint" />
            <mxPoint x="508" y="-120" as="targetPoint" />
          </mxGeometry>
        </mxCell>
        <mxCell id="d6c-pHE6NMxq9UuElUnG-95" value="" style="endArrow=classic;html=1;strokeWidth=3;exitX=0.471;exitY=-0.015;exitDx=0;exitDy=0;exitPerimeter=0;entryX=0.75;entryY=1;entryDx=0;entryDy=0;" parent="1" source="d6c-pHE6NMxq9UuElUnG-33" target="d6c-pHE6NMxq9UuElUnG-30" edge="1">
          <mxGeometry width="50" height="50" relative="1" as="geometry">
            <mxPoint x="1070" y="-265" as="sourcePoint" />
            <mxPoint x="1120" y="-315" as="targetPoint" />
          </mxGeometry>
        </mxCell>
      </root>
    </mxGraphModel>
  </diagram>
</mxfile>
